<?xml version="1.0" encoding="iso-8859-1"?>
<!-- Generator: Adobe Illustrator 19.0.0, SVG Export Plug-In . SVG Version: 6.00 Build 0)  -->
<svg version="1.1" id="Capa_1" xmlns="http://www.w3.org/2000/svg" xmlns:xlink="http://www.w3.org/1999/xlink" x="0px" y="0px"
	 viewBox="0 0 512 512" style="enable-background:new 0 0 512 512;" xml:space="preserve">
<polygon style="fill:#FFFFFF;" points="399.49,8 121.89,8 121.89,504 500.29,504 500.29,108.8 "/>
<path style="fill:#193651;" d="M508.29,512h-394.4V0h288.8l105.6,105.6V512z M129.89,496h362.4V112l-96-96h-266.4V496z"/>
<polygon style="fill:#FFBF5D;" points="159.49,466.4 159.49,45.6 384.29,45.6 463.49,124 463.49,466.4 "/>
<path style="fill:#E1E6E9;" d="M411.49,124h52l-79.2-78.4v52C384.29,112,396.29,124,411.49,124z"/>
<rect x="209.89" y="367.2" style="fill:#193651;" width="221.6" height="16"/>
<rect x="209.89" y="417.6" style="fill:#193651;" width="221.6" height="16"/>
<path style="fill:#FFFFFF;" d="M153.09,171.2c-6.4,24.8-4,49.6,4.8,72l-126.4,63.2c-18.4,8-24.8,30.4-14.4,47.2l0,0
	c10.4,16.8,33.6,20.8,48.8,8.8l113.6-84c22.4,25.6,56,42.4,96,40.8c52.8-1.6,97.6-40,109.6-91.2l0,0c15.2-64-24-128.8-88-144l0,0
	C233.09,68,168.29,107.2,153.09,171.2L153.09,171.2z"/>
<path id="SVGCleanerId_0" style="fill:#193651;" d="M45.09,376.8L45.09,376.8c-14.4,0-27.2-7.2-35.2-19.2c-6.4-10.4-8-22.4-4-33.6
	s12-20.8,22.4-24.8l120-59.2c-7.2-22.4-8.8-46.4-3.2-69.6c14.4-58.4,64.8-98.4,124-98.4c10.4,0,20,1.6,29.6,3.2
	c68,16.8,110.4,85.6,93.6,153.6c-13.6,55.2-61.6,95.2-116.8,97.6c-37.6,1.6-72-12-97.6-38.4l-108,80
	C63.49,373.6,53.89,376.8,45.09,376.8z M269.09,88c-51.2,0-96,35.2-108,84.8c-5.6,22.4-4,45.6,4.8,67.2l2.4,7.2l-133.6,66.4
	c-7.2,3.2-12,8.8-13.6,15.2c-2.4,7.2-1.6,14.4,2.4,20c4.8,7.2,12.8,12,21.6,12l0,0c5.6,0,11.2-1.6,15.2-5.6l120-88.8l4.8,5.6
	c22.4,25.6,54.4,39.2,89.6,38.4c48.8-1.6,90.4-36.8,102.4-84.8c14.4-60-22.4-120-82.4-134.4C286.69,89.6,277.89,88,269.09,88z"/>
<g>
	<circle style="fill:#27A2DE;" cx="267.49" cy="164" r="43.2"/>
	<path style="fill:#27A2DE;" d="M267.49,224.8c-39.2,0-72.8,21.6-89.6,54.4l0.8-0.8c22.4,25.6,56,42.4,96,40.8
		c32.8-0.8,61.6-16,82.4-39.2C341.09,247.2,306.69,224.8,267.49,224.8z"/>
</g>
<g>
	<path id="SVGCleanerId_0_1_" style="fill:#193651;" d="M45.09,376.8L45.09,376.8c-14.4,0-27.2-7.2-35.2-19.2
		c-6.4-10.4-8-22.4-4-33.6s12-20.8,22.4-24.8l120-59.2c-7.2-22.4-8.8-46.4-3.2-69.6c14.4-58.4,64.8-98.4,124-98.4
		c10.4,0,20,1.6,29.6,3.2c68,16.8,110.4,85.6,93.6,153.6c-13.6,55.2-61.6,95.2-116.8,97.6c-37.6,1.6-72-12-97.6-38.4l-108,80
		C63.49,373.6,53.89,376.8,45.09,376.8z M269.09,88c-51.2,0-96,35.2-108,84.8c-5.6,22.4-4,45.6,4.8,67.2l2.4,7.2l-133.6,66.4
		c-7.2,3.2-12,8.8-13.6,15.2c-2.4,7.2-1.6,14.4,2.4,20c4.8,7.2,12.8,12,21.6,12l0,0c5.6,0,11.2-1.6,15.2-5.6l120-88.8l4.8,5.6
		c22.4,25.6,54.4,39.2,89.6,38.4c48.8-1.6,90.4-36.8,102.4-84.8c14.4-60-22.4-120-82.4-134.4C286.69,89.6,277.89,88,269.09,88z"/>
</g>
<rect x="415.49" y="196.8" style="fill:#193651;" width="16" height="16"/>
<rect x="415.49" y="248" style="fill:#193651;" width="16" height="16"/>
<rect x="415.49" y="299.2" style="fill:#193651;" width="16" height="16"/>
<g>
</g>
<g>
</g>
<g>
</g>
<g>
</g>
<g>
</g>
<g>
</g>
<g>
</g>
<g>
</g>
<g>
</g>
<g>
</g>
<g>
</g>
<g>
</g>
<g>
</g>
<g>
</g>
<g>
</g>
</svg>
