<?xml version="1.0" encoding="iso-8859-1"?>
<!-- Generator: Adobe Illustrator 19.0.0, SVG Export Plug-In . SVG Version: 6.00 Build 0)  -->
<svg version="1.1" id="Capa_1" xmlns="http://www.w3.org/2000/svg" xmlns:xlink="http://www.w3.org/1999/xlink" x="0px" y="0px"
	 viewBox="0 0 53.671 53.671" style="enable-background:new 0 0 53.671 53.671;" xml:space="preserve">
<path style="fill:#E64C3C;" d="M50.83,2.535c-5.817,0.661-9.08,0.5-14.83,0c-19.969-1.736-36.01,1.773-36,19l0,0v6l0,0
	c1.018,6.119,7.182,9.648,14,8c7.583-1.833,8.667-3.167,13-10c3.025-4.77,6.387-6.802,14.409-8
	C49.949,16.259,58.167,1.701,50.83,2.535z"/>
<path style="fill:#BDC3C7;" d="M31,37.535c-0.104,0-0.211-0.017-0.316-0.052c-0.524-0.175-0.807-0.741-0.632-1.265l6-18
	c0.174-0.523,0.739-0.81,1.265-0.632c0.524,0.175,0.807,0.741,0.632,1.265l-6,18C31.809,37.27,31.419,37.535,31,37.535z"/>
<path style="fill:#BDC3C7;" d="M27,51.535c-0.104,0-0.211-0.017-0.316-0.052c-0.524-0.175-0.807-0.741-0.632-1.265l2-6
	c0.175-0.523,0.74-0.809,1.265-0.632c0.524,0.175,0.807,0.741,0.632,1.265l-2,6C27.809,51.27,27.419,51.535,27,51.535z"/>
<path style="fill:#BDC3C7;" d="M26,40.535c-0.104,0-0.211-0.017-0.316-0.052l-12-4c-0.524-0.175-0.807-0.741-0.632-1.265
	c0.174-0.523,0.739-0.808,1.265-0.632l12,4c0.524,0.175,0.807,0.741,0.632,1.265C26.809,40.27,26.419,40.535,26,40.535z"/>
<path style="fill:#38454F;" d="M15.161,19.835L15.161,19.835c-0.464-0.997-0.028-2.193,0.969-2.657l4.489-2.09
	c0.997-0.464,2.193-0.028,2.657,0.969l0,0c0.464,0.997,0.028,2.193-0.969,2.657l-4.489,2.09
	C16.821,21.268,15.625,20.832,15.161,19.835z"/>
<path style="fill:#38454F;" d="M3.186,25.38L3.186,25.38c-0.464-0.997-0.028-2.193,0.969-2.657l4.489-2.09
	c0.997-0.464,2.193-0.028,2.657,0.969l0,0c0.464,0.997,0.028,2.193-0.969,2.657l-4.489,2.09C4.846,26.813,3.65,26.377,3.186,25.38z"
	/>
<path style="fill:#38454F;" d="M5.699,15.292L5.699,15.292c-0.464-0.997-0.028-2.193,0.969-2.657l4.489-2.09
	c0.997-0.464,2.193-0.028,2.657,0.969l0,0c0.464,0.997,0.028,2.193-0.969,2.657l-4.489,2.09C7.359,16.725,6.163,16.289,5.699,15.292
	z"/>
<path style="fill:#38454F;" d="M11.699,30.38L11.699,30.38c-0.464-0.997-0.028-2.193,0.969-2.657l4.489-2.09
	c0.997-0.464,2.193-0.028,2.657,0.969l0,0c0.464,0.997,0.028,2.193-0.969,2.657l-4.489,2.09
	C13.359,31.813,12.163,31.377,11.699,30.38z"/>
<path style="fill:#38454F;" d="M30,45.535c-2.757,0-5-2.243-5-5s2.243-5,5-5s5,2.243,5,5S32.757,45.535,30,45.535z M30,37.535
	c-1.654,0-3,1.346-3,3s1.346,3,3,3s3-1.346,3-3S31.654,37.535,30,37.535z"/>
<g>
</g>
<g>
</g>
<g>
</g>
<g>
</g>
<g>
</g>
<g>
</g>
<g>
</g>
<g>
</g>
<g>
</g>
<g>
</g>
<g>
</g>
<g>
</g>
<g>
</g>
<g>
</g>
<g>
</g>
</svg>
