<?xml version="1.0" encoding="UTF-8" standalone="no"?>
<!-- Generator: Adobe Illustrator 19.0.0, SVG Export Plug-In . SVG Version: 6.00 Build 0)  -->

<svg
   xmlns:dc="http://purl.org/dc/elements/1.1/"
   xmlns:cc="http://creativecommons.org/ns#"
   xmlns:rdf="http://www.w3.org/1999/02/22-rdf-syntax-ns#"
   xmlns:svg="http://www.w3.org/2000/svg"
   xmlns="http://www.w3.org/2000/svg"
   xmlns:sodipodi="http://sodipodi.sourceforge.net/DTD/sodipodi-0.dtd"
   xmlns:inkscape="http://www.inkscape.org/namespaces/inkscape"
   version="1.1"
   id="Capa_1"
   x="0px"
   y="0px"
   viewBox="0 0 512.01 512.01"
   style="enable-background:new 0 0 512.01 512.01;"
   xml:space="preserve"
   sodipodi:docname="design-mug.svg"
   inkscape:version="0.92.2 5c3e80d, 2017-08-06"><metadata
     id="metadata64"><rdf:RDF><cc:Work
         rdf:about=""><dc:format>image/svg+xml</dc:format><dc:type
           rdf:resource="http://purl.org/dc/dcmitype/StillImage" /></cc:Work></rdf:RDF></metadata><defs
     id="defs62" /><sodipodi:namedview
     pagecolor="#ffffff"
     bordercolor="#666666"
     borderopacity="1"
     objecttolerance="10"
     gridtolerance="10"
     guidetolerance="10"
     inkscape:pageopacity="0"
     inkscape:pageshadow="2"
     inkscape:window-width="1280"
     inkscape:window-height="988"
     id="namedview60"
     showgrid="false"
     inkscape:zoom="0.46092849"
     inkscape:cx="256.005"
     inkscape:cy="256.005"
     inkscape:window-x="1366"
     inkscape:window-y="0"
     inkscape:window-maximized="1"
     inkscape:current-layer="Capa_1" /><path
     style="fill:#303C42;"
     d="M405.339,277.344h-42.667v-10.667c0-4.634-2.986-8.475-7.109-9.949l33.833-109.964  c21.799-6.701,37.797-26.788,37.797-50.754c0-28.01-7.458-52.156-45.563-92.646c-3.01-3.198-7.656-4.198-11.698-2.604  c-4.073,1.615-6.74,5.542-6.74,9.917c0,16.031-11.385,30.729-22.396,44.948c-10.427,13.458-20.271,26.177-20.271,40.385  c0,10.135,2.997,19.521,7.926,27.599L290.622,256.01h-13.284V10.677c0-5.896-4.771-10.667-10.667-10.667h-85.333  c-5.896,0-10.667,4.771-10.667,10.667V226.81L127.62,71.823c-0.302-1.094-0.781-2.125-1.406-3.063l-42.667-64  c-2.594-3.917-7.479-5.677-11.969-4.292c-4.5,1.365-7.573,5.51-7.573,10.208v74.667c0,1.021,0.146,2.031,0.438,3.01l49.512,168.339  c-4.208,1.427-7.283,5.289-7.283,9.984v202.667c0,23.531,19.135,42.667,42.667,42.667h170.667c23.531,0,42.667-19.135,42.667-42.667  v-42.667c47.052,0,85.333-38.281,85.333-85.333V320.01C448.005,296.479,428.87,277.344,405.339,277.344z M426.672,341.344  c0,35.292-28.708,64-64,64V298.677h42.667c11.76,0,21.333,9.573,21.333,21.333V341.344z"
     id="path2" /><path
     style="fill:#546E7A;"
     d="M357.661,68.677c8.156-10.521,17.021-21.958,22.25-35.052c23.75,28.99,25.948,45.615,25.948,62.385  c0,17.646-14.354,32-32,32c-17.646,0-32-14.354-32-32C341.859,89.094,349.891,78.719,357.661,68.677z"
     id="path4" /><path
     style="opacity:0.1;enable-background:new    ;"
     d="M390.634,48.167c3.486,9.831,4.038,18.155,4.038,26.51  c0,17.646-14.354,32-32,32c-7.84,0-14.936-2.944-20.507-7.641c1.551,16.21,15.085,28.974,31.694,28.974c17.646,0,32-14.354,32-32  C405.859,82.288,404.18,68.547,390.634,48.167z"
     id="path6" /><path
     style="opacity:0.2;fill:#FFFFFF;enable-background:new    ;"
     d="M369.28,68.002c1.541,1.021,4.697,0.124,7.109-3.515  c2.412-3.639,3.65-9.198,2.11-10.219c-1.54-1.021-3.663,2.315-6.075,5.954C370.013,63.861,367.74,66.981,369.28,68.002z"
     id="path8" /><path
     style="fill:#EF5350;"
     d="M345.651,141.087c6.215,3.902,13.279,6.454,20.855,7.513l-33.048,107.41h-20.642L345.651,141.087z"
     id="path10" /><path
     style="fill:#F2F2F2;"
     d="M256.005,21.344V256.01h-64v-42.667h32c5.896,0,10.667-4.771,10.667-10.667  s-4.771-10.667-10.667-10.667h-32v-42.667h32c5.896,0,10.667-4.771,10.667-10.667c0-5.896-4.771-10.667-10.667-10.667h-32V85.344h32  c5.896,0,10.667-4.771,10.667-10.667s-4.771-10.667-10.667-10.667h-32V21.344C192.005,21.344,256.005,21.344,256.005,21.344z"
     id="path12" /><polygon
     style="fill:#FFCA28;"
     points="156.635,256.01 135.983,256.01 88.038,92.992 109.839,87.542 "
     id="polygon14" /><polygon
     style="fill:#546E7A;"
     points="100.069,68.005 85.339,71.688 85.339,45.906 "
     id="polygon16" /><path
     style="fill:#0288D1;"
     d="M341.339,469.344c0,11.76-9.573,21.333-21.333,21.333H149.339c-11.76,0-21.333-9.573-21.333-21.333  v-192h213.333V469.344z"
     id="path18" /><path
     style="opacity:0.1;enable-background:new    ;"
     d="M309.339,277.344v192c0,11.76-9.573,21.333-21.333,21.333h32  c11.76,0,21.333-9.573,21.333-21.333v-192H309.339z"
     id="path20" /><linearGradient
     id="SVGID_1_"
     gradientUnits="userSpaceOnUse"
     x1="-46.5205"
     y1="640.0471"
     x2="-25.4167"
     y2="630.2062"
     gradientTransform="matrix(24.380935,0,0,-21.3333,1652.2606,13210.348)"><stop
       offset="0"
       style="stop-color:#FFFFFF;stop-opacity:0.2"
       id="stop22" /><stop
       offset="1"
       style="stop-color:#FFFFFF;stop-opacity:0"
       id="stop24" /></linearGradient><path
     style="fill:url(#SVGID_1_);stroke-width:1.06904542"
     d="m 976.95901,-304.0911 h -48.76233 v -10.667 c 0,-4.634 -3.41257,-8.475 -8.12458,-9.949 l 38.66632,-109.964 c 24.91316,-6.701 43.19658,-26.788 43.19658,-50.754 0,-28.01 -8.52341,-52.156 -52.07202,-92.646 -3.44,-3.198 -8.74972,-4.198 -13.36915,-2.604 -4.65486,1.615 -7.70286,5.542 -7.70286,9.917 0,16.031 -13.01144,30.729 -25.59545,44.948 -11.91659,13.458 -23.16688,26.177 -23.16688,40.385 0,10.135 3.42515,19.521 9.05829,27.599 l -43.23318,132.401 h -15.18172 v -245.333 c 0,-5.896 -5.45258,-10.667 -12.19087,-10.667 h -97.52351 c -6.73829,0 -12.19087,4.771 -12.19087,10.667 v 216.133 l -49.20118,-154.987 c -0.34515,-1.094 -0.89257,-2.125 -1.60686,-3.063 l -48.76233,-64 c -2.96457,-3.917 -8.54743,-5.677 -13.67887,-4.292 -5.14286,1.365 -8.65486,5.51 -8.65486,10.208 v 74.667 c 0,1.021 0.16686,2.031 0.50057,3.01 l 56.58519,168.339 c -4.80914,1.427 -8.32343,5.289 -8.32343,9.984 v 202.667 c 0,23.531004 21.86859,42.667004 48.76232,42.667004 H 879.4355 c 26.89259,0 48.76232,-19.135 48.76232,-42.667004 v -42.667 c 53.77376,0 97.52348,-38.281 97.52348,-85.333 v -21.333 c -10e-4,-23.531 -21.8697,-42.666 -48.76229,-42.666 z m 24.38059,64 c 0,35.292 -32.80917,64 -73.14292,64 v -106.667 h 48.76233 c 13.44001,0 24.38059,9.573 24.38059,21.333 z"
     id="path27"
     inkscape:connector-curvature="0" /><g
     id="g29" /><g
     id="g31" /><g
     id="g33" /><g
     id="g35" /><g
     id="g37" /><g
     id="g39" /><g
     id="g41" /><g
     id="g43" /><g
     id="g45" /><g
     id="g47" /><g
     id="g49" /><g
     id="g51" /><g
     id="g53" /><g
     id="g55" /><g
     id="g57" /></svg>