<?xml version="1.0" encoding="UTF-8"?>
<svg width="110mm" height="110mm" version="1.1" viewBox="0 0 110 110" xmlns="http://www.w3.org/2000/svg" xmlns:cc="http://creativecommons.org/ns#" xmlns:dc="http://purl.org/dc/elements/1.1/" xmlns:osb="http://www.openswatchbook.org/uri/2009/osb" xmlns:rdf="http://www.w3.org/1999/02/22-rdf-syntax-ns#" xmlns:xlink="http://www.w3.org/1999/xlink">
<defs>
<linearGradient id="a">
<stop stop-color="#ff4eb3" offset="0"/>
<stop stop-color="#ff765c" offset="1"/>
</linearGradient>
<linearGradient id="c" x1="104.07" x2="150.26" y1="122.45" y2="142.2" gradientUnits="userSpaceOnUse" xlink:href="#a"/>
<linearGradient id="b" x1="108.01" x2="139.65" y1="122.79" y2="138.58" gradientUnits="userSpaceOnUse" xlink:href="#a"/>
</defs>
<metadata>
<rdf:RDF>
<cc:Work rdf:about="">
<dc:format>image/svg+xml</dc:format>
<dc:type rdf:resource="http://purl.org/dc/dcmitype/StillImage"/>
<dc:title/>
</cc:Work>
</rdf:RDF>
</metadata>
<g transform="translate(0,-187)">
<a transform="matrix(1.913 -.024899 .017032 2.7966 -225.12 -78.649)" fill="#333">
<g transform="matrix(1.0595 -.0010074 -.00073264 .85278 12.011 .10694)" fill="url(#c)" aria-label="g.">
<path d="m146.15 141.13q1.0116 0.98468 1.0118 2.2425 5.5e-4 1.2578-1.011 2.1871-0.95509 0.92935-2.3599 0.92889-1.4048-2.3e-4 -2.3602-0.87576-0.95541-0.92999-0.95564-2.2425-6.3e-4 -1.3125 1.011-2.2418 1.0113-0.92934 2.3037-0.92891 1.2924 1e-5 2.3602 0.93045zm-33.349-20.723q-0.97686 0.97685-1.4327 2.1491-0.45586 1.1722-0.45586 2.4747 0 1.3025 0.52099 2.5398 0.52099 1.1722 1.3676 2.084 0.91173 0.84661 2.084 1.3676 1.2374 0.52099 2.5398 0.52099 1.3676 0 2.5398-0.52099 1.1722-0.52099 2.084-1.4327t1.4327-2.084q0.52099-1.1722 0.52099-2.4747 0-1.3025-0.52099-2.4747-0.52099-1.2374-1.4327-2.1491t-2.1491-1.4327q-1.1722-0.52099-2.4747-0.52099-2.6701 0-4.6238 1.9537zm11.983-2.8003q3.1259-2.6701 7.4241-2.6701h0.84661l0.58611 3.8423q-0.45587-0.0651-0.91173-0.0651-0.39075-0.0651-0.84661-0.0651-2.8654 0-5.1448 1.4327 1.4978 2.2793 1.4978 5.0145 0 2.084-0.84661 3.9725-0.8466 1.8235-2.3444 3.2562-1.4327 1.3676-3.3864 2.2142-1.9537 0.78149-4.1679 0.78149-1.8235 0-3.7772-0.71637-2.084 2.0188-2.084 3.3864 0 1.1071 1.2374 1.7583 1.3025 0.58611 3.5167 0.58611 1.2374 0 2.4747-0.0651 1.3025-0.13025 2.4096-0.13025 2.9306 0 5.0145 0.58611 2.1491 0.52099 3.4516 1.563 1.3025 0.97686 1.9537 2.3444 0.65123 1.3676 0.65123 2.9306 0 1.7583-0.8466 3.3864-0.84661 1.6932-2.5398 2.9306-1.6932 1.3025-4.2982 2.0188-2.5398 0.78149-5.9914 0.78149-3.5818 0-6.1868-0.58612-2.5398-0.52099-4.1028-1.4978-1.563-0.97686-2.4096-2.2793-0.78149-1.2374-0.78149-2.6701 0-3.5167 4.8843-6.5775-2.4096-1.2374-2.4096-4.1028 0-2.8003 3.3864-5.6006-2.084-1.3676-3.2562-3.5167-1.1722-2.1491-1.1722-4.5587 0-2.2142 0.91173-4.1028 0.91173-1.9537 2.4096-3.3864 1.563-1.4327 3.5167-2.2142 2.0188-0.84661 4.1028-0.84661 4.3633 0 7.2287 2.8654zm-11.592 26.31q-3.712 2.084-3.712 4.5587 0 1.3025 0.71636 2.1491 0.78148 0.91174 2.0188 1.4327 1.3025 0.58611 2.9957 0.8466 1.7583 0.2605 3.6469 0.2605 3.9726 0 6.5775-1.4327 2.605-1.4327 2.605-3.8423-0.13025-1.7583-1.4978-2.7352-1.3025-0.97685-4.1679-0.97685-0.32562 0-0.65124 0.0651-0.32562 0-0.65123 0-2.4747 0-4.4284-0.0651-1.9537-0.13025-3.4516-0.2605z" fill="url(#b)" stroke-width="1.3858"/>
</g>
</a>
<path d="m-182.56 197.52a4.6302 4.4979 0 0 1 -4.4482 4.4944 4.6302 4.4979 0 0 1 -4.7979 -4.141 4.6302 4.4979 0 0 1 4.0709 -4.8201 4.6302 4.4979 0 0 1 5.118 3.762" fill="#fff" stroke-width=".26458"/>
<path d="m-156.1 197.12a14.155 14.42 0 0 1 -13.804 14.415 14.155 14.42 0 0 1 -14.489 -13.701 14.155 14.42 0 0 1 13.086 -15.095" fill="#fff" stroke-width=".26458"/>
<path d="m-169.33 190.64a0.52917 1.5875 0 0 1 -0.51605 1.587 0.52917 1.5875 0 0 1 -0.54163 -1.5083 0.52917 1.5875 0 0 1 0.4892 -1.6618" fill="#fff" stroke-width=".26458"/>
<path d="m-164.57 161.27a5.8208 5.5563 0 0 1 -3.9553 5.2632 5.8208 5.5563 0 0 1 -6.4906 -1.8896 5.8208 5.5563 0 0 1 -0.20497 -6.4744 5.8208 5.5563 0 0 1 6.3592 -2.2603l-1.5291 5.3611z" fill="#fff" stroke-width=".26458"/>
<path d="m-189.18 211.8-13.238-11.031-13.266 10.998 6.4005-15.999-14.559-9.2178 17.194 1.1433 4.2676-16.695 4.2259 16.706 17.197-1.1004-14.582 9.1814z" fill="#fff" stroke-width=".26458"/>
<path d="m-156.37 189.05-2.3518 0.59806 0.15798 2.4216-1.2955-2.0519-2.2542 0.89855 1.5512-1.8662-1.5512-1.8662 2.2542 0.89855 1.2955-2.0519-0.15798 2.4216z" fill="#fff" stroke-width=".26458"/>
<path d="m209.74 273.4a11.984 20.668 0 0 1 -12.541 18.363 11.984 20.668 0 0 1 -11.354 -20.534 11.984 20.668 0 0 1 11.231 -20.733 11.984 20.668 0 0 1 12.65 18.14l-11.897 2.487z" fill="#fff" stroke-width=".26458"/>
<path d="m289.75 275.76a49.847 48.457 0 0 1 -52.165 43.054 49.847 48.457 0 0 1 -47.225 -48.142 49.847 48.457 0 0 1 46.714 -48.61 49.847 48.457 0 0 1 52.617 42.531l-49.485 5.8308z" fill="#fff" stroke-width=".26458"/>
<text x="79.199135" y="232.04282" fill="#000000" font-family="sans-serif" font-size="10.583px" letter-spacing="0px" stroke-width=".26458" word-spacing="0px" style="line-height:1.25" xml:space="preserve"><tspan x="79.199135" y="241.67227" stroke-width=".26458"/></text>
</g>
</svg>
