<?xml version="1.0" encoding="iso-8859-1"?>
<!-- Generator: Adobe Illustrator 19.0.0, SVG Export Plug-In . SVG Version: 6.00 Build 0)  -->
<svg xmlns="http://www.w3.org/2000/svg" xmlns:xlink="http://www.w3.org/1999/xlink" version="1.1" id="Layer_1" x="0px" y="0px" viewBox="0 0 512.021 512.021" style="enable-background:new 0 0 512.021 512.021;" xml:space="preserve" width="512px" height="512px">
<g>
	<g>
		<path d="M501.333,425.416c-21.888,0-34.624,10.475-44.501,20.48l-184.96-276.843c-11.072-16.555-27.947-27.819-47.509-31.723    c-16.043-3.243-32.277-1.131-46.741,5.845L141.611,89.31l8.853-5.909c4.907-3.264,6.229-9.899,2.944-14.784    c-3.243-4.928-9.856-6.229-14.763-2.965l-19.712,13.163l-17.664-49.259c-1.109-3.093-3.563-5.504-6.677-6.528    c-3.115-1.003-6.549-0.576-9.28,1.259L32.107,59.827c-2.731,1.835-4.501,4.821-4.715,8.085c-0.235,3.264,1.045,6.464,3.477,8.683    l38.763,35.157l-19.691,13.163c-4.907,3.264-6.229,9.899-2.944,14.784c2.048,3.093,5.419,4.757,8.875,4.757    c2.027,0,4.096-0.576,5.909-1.792l8.896-5.931l35.968,53.824c-27.157,24.405-33.003,65.792-12.139,97.003l93.141,139.413    c-4.032-0.917-8.341-1.557-13.227-1.557c-25.024,0-38.123,13.675-48.64,24.661c-9.685,10.133-17.323,18.112-33.237,18.112    s-23.552-7.979-33.237-18.112c-10.517-10.965-23.616-24.661-48.64-24.661C4.779,425.416,0,430.195,0,436.083    c0,5.888,4.779,10.667,10.667,10.667c15.915,0,23.552,7.979,33.237,18.112c10.517,10.965,23.616,24.661,48.64,24.661    s38.123-13.675,48.64-24.661c9.685-10.133,17.323-18.112,33.237-18.112c15.872,0,23.509,7.979,33.173,18.091    c10.496,10.987,23.573,24.683,48.576,24.683c24.981,0,38.059-13.675,48.555-24.683c9.643-10.112,17.28-18.091,33.152-18.091    s23.488,7.979,33.152,18.091c10.496,10.987,23.573,24.683,48.555,24.683c25.003,0,38.101-13.696,48.619-24.683    c9.643-10.112,17.28-18.091,33.152-18.091c5.888,0,10.667-4.779,10.667-10.667C512.021,430.195,507.221,425.416,501.333,425.416z     M55.339,69.982L85.845,49.63l14.827,41.387l-12.779,8.512L55.339,69.982z M337.899,425.416c-25.003,0-38.08,13.675-48.576,24.683    c-1.92,2.005-3.755,3.84-5.589,5.632l-59.115-88.491c33.451-23.275,53.419-43.072,61.867-61.077l89.259,133.589    C366.763,432.03,355.221,425.416,337.899,425.416z M249.429,308.36c-3.136-4.949-9.707-6.485-14.699-3.328    c-9.6,6.016-20.587,6.251-21.931,6.059c-0.32-0.491-0.341-3.435,2.411-8.256c3.605-6.336,10.283-13.013,18.283-18.368    c17.28-11.563,31.083-10.944,32.725-8.619c3.328,4.651,4.437,9.195,3.499,14.336c-2.261,12.309-15.616,27.968-39.701,46.677    l-4.011-6.016c7.019-1.365,14.08-4.011,20.075-7.787C251.051,319.944,252.565,313.352,249.429,308.36z M420.309,468.083    L283.755,263.752c-0.021-0.021-0.043-0.043-0.064-0.064c-0.064-0.085-0.085-0.171-0.149-0.256    c-10.667-14.933-36.715-13.547-61.931,3.285c-10.837,7.253-19.691,16.299-24.96,25.536c-6.571,11.541-7.147,22.421-1.621,30.677    c0.021,0.043,0.064,0.064,0.085,0.107l17.621,26.411c-2.88,2.005-5.675,3.989-8.789,6.059c-2.347,1.579-3.968,4.011-4.523,6.784    c-0.555,2.773,0.021,5.675,1.6,8l64.576,96.64c-2.859,0.747-5.909,1.259-9.472,1.259c-7.872,0-13.717-1.984-18.773-5.184    l-125.12-187.307c-16.341-24.448-9.728-57.621,14.72-73.963c4.907-3.264,6.229-9.899,2.944-14.784l-34.688-51.989L96,135.688    c1.728,1.579,3.883,2.347,6.059,2.56c0.213,0.021,0.384,0.107,0.597,0.107c0.171,0,0.32,0.085,0.491,0.085    c1.877,0,3.712-0.619,5.376-1.621c0.192-0.107,0.427-0.043,0.619-0.171l17.792-11.819c4.075-2.731,5.781-7.872,4.117-12.48    l-0.448-1.216l34.816,52.096c1.557,2.347,4.011,4.011,6.784,4.544c2.795,0.576,5.632-0.021,7.957-1.579    c11.84-7.915,26.069-10.709,40.043-7.979c13.973,2.795,26.027,10.837,33.941,22.677l187.029,279.915    C435.584,465.075,429.269,467.934,420.309,468.083z" fill="#8ca6db"/>
	</g>
</g>
<g>
</g>
<g>
</g>
<g>
</g>
<g>
</g>
<g>
</g>
<g>
</g>
<g>
</g>
<g>
</g>
<g>
</g>
<g>
</g>
<g>
</g>
<g>
</g>
<g>
</g>
<g>
</g>
<g>
</g>
</svg>
