<?xml version="1.0" encoding="iso-8859-1"?>
<!-- Generator: Adobe Illustrator 19.0.0, SVG Export Plug-In . SVG Version: 6.00 Build 0)  -->
<svg xmlns="http://www.w3.org/2000/svg" xmlns:xlink="http://www.w3.org/1999/xlink" version="1.1" id="Layer_1" x="0px" y="0px" viewBox="0 0 362.767 362.767" style="enable-background:new 0 0 362.767 362.767;" xml:space="preserve" width="512px" height="512px">
<g>
	<g>
		<path d="M196.601,108.955h-30.434c-48.999,0-88.864,39.864-88.864,88.864v76.084c0,49,39.864,88.864,88.864,88.864h30.434    c49,0,88.864-39.864,88.864-88.864v-76.084C285.465,148.819,245.601,108.955,196.601,108.955z M275.122,273.903    c0,43.297-35.224,78.521-78.521,78.521h-30.434c-43.296,0-78.52-35.224-78.52-78.521v-76.084c0-43.296,35.224-78.521,78.52-78.521    v0.001h30.434c43.297,0,78.521,35.224,78.521,78.52V273.903z" fill="#FFFFFF"/>
	</g>
</g>
<g>
	<g>
		<path d="M234.643,25.262h-22.825c-13.929,0-25.262-11.333-25.262-25.262h-10.343c0,19.633,15.972,35.605,35.605,35.605h22.825    c9.734,0,17.654,7.919,17.654,17.654c0,9.734-7.919,17.654-17.654,17.654h-22.825c-19.633,0-35.605,15.972-35.605,35.605v7.608    h10.343v-7.608c0-13.929,11.333-25.262,25.262-25.262h22.825c15.438,0,27.997-12.56,27.997-27.997S250.081,25.262,234.643,25.262z    " fill="#FFFFFF"/>
	</g>
</g>
<g>
	<g>
		<rect x="176.211" y="144.56" width="10.343" height="45.653" fill="#FFFFFF"/>
	</g>
</g>
<g>
</g>
<g>
</g>
<g>
</g>
<g>
</g>
<g>
</g>
<g>
</g>
<g>
</g>
<g>
</g>
<g>
</g>
<g>
</g>
<g>
</g>
<g>
</g>
<g>
</g>
<g>
</g>
<g>
</g>
</svg>
