<?xml version="1.0" encoding="UTF-8" standalone="no"?>
<!-- Generator: Adobe Illustrator 18.0.0, SVG Export Plug-In . SVG Version: 6.00 Build 0)  -->

<svg
   xmlns:dc="http://purl.org/dc/elements/1.1/"
   xmlns:cc="http://creativecommons.org/ns#"
   xmlns:rdf="http://www.w3.org/1999/02/22-rdf-syntax-ns#"
   xmlns:svg="http://www.w3.org/2000/svg"
   xmlns="http://www.w3.org/2000/svg"
   xmlns:sodipodi="http://sodipodi.sourceforge.net/DTD/sodipodi-0.dtd"
   xmlns:inkscape="http://www.inkscape.org/namespaces/inkscape"
   version="1.1"
   id="Capa_1"
   x="0px"
   y="0px"
   viewBox="0 0 60 60"
   style="enable-background:new 0 0 60 60;"
   xml:space="preserve"
   sodipodi:docname="presentation-alt.svg"
   inkscape:version="0.92.2 5c3e80d, 2017-08-06"><metadata
     id="metadata65"><rdf:RDF><cc:Work
         rdf:about=""><dc:format>image/svg+xml</dc:format><dc:type
           rdf:resource="http://purl.org/dc/dcmitype/StillImage" /></cc:Work></rdf:RDF></metadata><defs
     id="defs63" /><sodipodi:namedview
     pagecolor="#ffffff"
     bordercolor="#666666"
     borderopacity="1"
     objecttolerance="10"
     gridtolerance="10"
     guidetolerance="10"
     inkscape:pageopacity="0"
     inkscape:pageshadow="2"
     inkscape:window-width="1366"
     inkscape:window-height="645"
     id="namedview61"
     showgrid="false"
     inkscape:zoom="3.9333333"
     inkscape:cx="-18.432203"
     inkscape:cy="30"
     inkscape:window-x="0"
     inkscape:window-y="30"
     inkscape:window-maximized="1"
     inkscape:current-layer="Capa_1" /><g
     id="g28"><rect
       x="1"
       y="0.5"
       style="fill:#1fc8db;fill-opacity:1"
       width="58"
       height="6"
       id="rect2" /><rect
       x="3"
       y="6.5"
       style="fill:#eeeeee;fill-opacity:1"
       width="54"
       height="42"
       id="rect4" /><path
       style="fill:#2cb5e8;fill-opacity:1"
       d="M19,19.5h-9c-0.552,0-1-0.447-1-1s0.448-1,1-1h9c0.552,0,1,0.447,1,1S19.552,19.5,19,19.5z"
       id="path6" /><path
       style="fill:#2cb5e8;fill-opacity:1"
       d="M15,16.5h-5c-0.552,0-1-0.447-1-1s0.448-1,1-1h5c0.552,0,1,0.447,1,1S15.552,16.5,15,16.5z"
       id="path8" /><path
       style="fill:#2cb5e8;fill-opacity:1"
       d="M19,22.5h-9c-0.552,0-1-0.447-1-1s0.448-1,1-1h9c0.552,0,1,0.447,1,1S19.552,22.5,19,22.5z"
       id="path10" /><path
       style="fill:#0fb8ac;fill-opacity:1"
       d="M12,41.5c-0.256,0-0.512-0.098-0.707-0.293c-0.391-0.391-0.391-1.023,0-1.414l12.6-12.6   c0.391-0.391,1.023-0.391,1.414,0s0.391,1.023,0,1.414l-12.6,12.6C12.512,41.402,12.256,41.5,12,41.5z"
       id="path12" /><path
       style="fill:#0fb8ac;fill-opacity:1"
       d="M33.6,37.9c-0.256,0-0.512-0.098-0.707-0.293l-9-9c-0.391-0.391-0.391-1.023,0-1.414   s1.023-0.391,1.414,0l9,9c0.391,0.391,0.391,1.023,0,1.414C34.112,37.803,33.856,37.9,33.6,37.9z"
       id="path14" /><path
       style="fill:#0fb8ac;fill-opacity:1"
       d="M33.6,37.9c-0.256,0-0.512-0.098-0.707-0.293c-0.391-0.391-0.391-1.023,0-1.414l14.4-14.4   c0.391-0.391,1.023-0.391,1.414,0s0.391,1.023,0,1.414l-14.4,14.4C34.112,37.803,33.856,37.9,33.6,37.9z"
       id="path16" /><path
       style="fill:#0fb8ac;fill-opacity:1"
       d="M48,30.5c-0.553,0-1-0.447-1-1v-7c0-0.553,0.447-1,1-1s1,0.447,1,1v7C49,30.053,48.553,30.5,48,30.5   z"
       id="path18" /><path
       style="fill:#0fb8ac;fill-opacity:1"
       d="M48,23.5h-7c-0.552,0-1-0.447-1-1s0.448-1,1-1h7c0.553,0,1,0.447,1,1S48.553,23.5,48,23.5z"
       id="path20" /><path
       style="fill:#1fc8db;fill-opacity:1"
       d="M59,49.5H1c-0.552,0-1-0.447-1-1s0.448-1,1-1h58c0.553,0,1,0.447,1,1S59.553,49.5,59,49.5z"
       id="path22" /><path
       style="fill:#1fc8db;fill-opacity:1"
       d="M30,52.5c-0.552,0-1-0.447-1-1v-3c0-0.553,0.448-1,1-1s1,0.447,1,1v3C31,52.053,30.552,52.5,30,52.5   z"
       id="path24" /><path
       style="fill:#1fc8db;fill-opacity:1"
       d="M30,59.5c-2.206,0-4-1.794-4-4s1.794-4,4-4s4,1.794,4,4S32.206,59.5,30,59.5z M30,53.5   c-1.103,0-2,0.897-2,2s0.897,2,2,2s2-0.897,2-2S31.103,53.5,30,53.5z"
       id="path26" /></g><g
     id="g30" /><g
     id="g32" /><g
     id="g34" /><g
     id="g36" /><g
     id="g38" /><g
     id="g40" /><g
     id="g42" /><g
     id="g44" /><g
     id="g46" /><g
     id="g48" /><g
     id="g50" /><g
     id="g52" /><g
     id="g54" /><g
     id="g56" /><g
     id="g58" /></svg>