<?xml version="1.0" encoding="iso-8859-1"?>
<!-- Generator: Adobe Illustrator 19.0.0, SVG Export Plug-In . SVG Version: 6.00 Build 0)  -->
<svg version="1.1" id="Layer_1" xmlns="http://www.w3.org/2000/svg" xmlns:xlink="http://www.w3.org/1999/xlink" x="0px" y="0px"
	 viewBox="0 0 512.005 512.005" style="enable-background:new 0 0 512.005 512.005;" xml:space="preserve">
<rect x="0.007" y="66.507" style="fill:#CCCCCC;" width="511.993" height="378.994"/>
<polygon style="fill:#E6E6E6;" points="512,66.504 512,445.498 194.232,445.498 300.494,66.504 "/>
<rect x="0.007" y="66.507" style="fill:#F9C573;" width="511.993" height="57.15"/>
<polygon style="fill:#FCD8A9;" points="512,66.504 512,123.655 284.467,123.655 300.494,66.504 "/>
<rect y="118.066" style="fill:#B3B3B3;" width="512.005" height="11.182"/>
<circle style="fill:#F94B54;" cx="31.308" cy="96.324" r="9.318"/>
<circle style="fill:#61BCE0;" cx="91.565" cy="96.324" r="9.318"/>
<g>
	<circle style="fill:#F2F2F2;" cx="61.437" cy="96.324" r="9.318"/>
	<circle style="fill:#F2F2F2;" cx="88.112" cy="274.969" r="68.332"/>
</g>
<path style="fill:#61BCE0;" d="M131.981,234.796l-4.793,4.793c-4.085-3.096-9.155-4.956-14.664-4.956
	c-11.854,0-21.756,8.513-23.916,19.744c-21.862,0.895-31.117-14.321-31.506-14.983c-0.947-1.654-2.756-2.615-4.654-2.487
	c-1.9,0.13-3.558,1.337-4.269,3.104c-2.167,5.383-4.478,11.72-4.478,18.784c0,19.252,9.691,36.308,24.689,43.449
	c2.48,1.182,5.443,0.128,6.623-2.351c1.18-2.479,0.128-5.443-2.351-6.623c-11.378-5.418-19.022-19.273-19.022-34.475
	c0-2.372,0.374-4.698,0.958-6.967c6.743,6.5,19.317,14.506,39.081,12.102c2.491-0.268,4.432-2.378,4.432-4.941
	c0-7.948,6.467-14.414,14.414-14.414c7.898,0,14.334,6.386,14.414,14.265l-0.118,1.825c-0.001,0.022-0.002,0.043-0.004,0.066
	c-0.002,0.047-0.004,0.096-0.005,0.143c-0.345,12.04-4.858,23.639-12.71,32.676c-0.149,0.155-0.298,0.321-0.445,0.487
	c-0.063,0.071-0.125,0.144-0.186,0.206c-0.075,0.075-0.145,0.15-0.215,0.229c-10.327,11.721-24.723,18.442-39.497,18.442
	c-14.732,0-24.208-4.253-29.563-7.821c-2.285-1.522-5.37-0.903-6.892,1.38c-1.522,2.284-0.903,5.37,1.38,6.892
	c6.497,4.328,17.856,9.488,35.074,9.488c17.586,0,34.663-7.914,46.871-21.716c0.153-0.159,0.307-0.329,0.458-0.501
	c0.063-0.071,0.125-0.144,0.186-0.206c0.078-0.079,0.155-0.16,0.229-0.245c9.347-10.702,14.75-24.432,15.234-38.697
	c0.143-0.949,0.143-1.83,0.143-2.5c0-4.628-1.321-8.943-3.572-12.631l5.117-5.117c1.779-1.779,1.779-4.663,0-6.443
	C136.645,233.017,133.76,233.017,131.981,234.796z"/>
<circle style="fill:#FFFFFF;" cx="423.894" cy="274.969" r="68.332"/>
<path style="fill:#81AAF2;" d="M440.693,230.964h-7.656c-17.043,0-30.908,13.866-30.908,30.908v52.126c0,2.744,2.225,4.97,4.97,4.97
	s4.97-2.225,4.97-4.97v-28.303h17.427c2.744,0,4.97-2.225,4.97-4.97c0-2.744-2.225-4.97-4.97-4.97h-17.427v-13.884
	c0-11.563,9.407-20.969,20.969-20.969h7.656c2.744,0,4.97-2.225,4.97-4.97C445.662,233.19,443.437,230.964,440.693,230.964z"/>
<path style="fill:#F2F2F2;" d="M324.336,274.966c0,37.744-30.588,68.332-68.332,68.332c-11.182,0-21.73-2.684-31.035-7.442
	c-22.14-11.293-37.297-34.327-37.297-60.89c0-37.744,30.588-68.332,68.332-68.332c1.727,0,3.441,0.062,5.144,0.186
	C296.493,209.455,324.336,238.949,324.336,274.966z"/>
<path style="fill:#FFFFFF;" d="M324.336,274.966c0,37.744-30.588,68.332-68.332,68.332c-11.182,0-21.73-2.684-31.035-7.442
	l36.179-129.036C296.493,209.455,324.336,238.949,324.336,274.966z"/>
<g>
	<path style="fill:#F94B54;" d="M271.583,230.451h-31.159c-15.952,0-28.935,12.983-28.935,28.935v31.159
		c0,12.312,7.74,22.86,18.611,27.035c3.205,1.23,6.684,1.901,10.324,1.901h31.159c15.952,0,28.935-12.983,28.935-28.935v-31.159
		C300.519,243.434,287.536,230.451,271.583,230.451z M290.58,290.546c0,10.473-8.523,18.996-18.996,18.996h-31.159
		c-2.708,0-5.293-0.572-7.628-1.603c-6.684-2.932-11.368-9.629-11.368-17.394v-31.159c0-10.473,8.523-18.996,18.996-18.996h31.159
		c10.473,0,18.996,8.523,18.996,18.996V290.546z"/>
	<path style="fill:#F94B54;" d="M281.075,251.647c0,2.746-2.224,4.97-4.97,4.97s-4.97-2.224-4.97-4.97c0-2.733,2.224-4.97,4.97-4.97
		S281.075,248.913,281.075,251.647z"/>
	<path style="fill:#F94B54;" d="M256.004,251.647c-2.733,0-5.355,0.472-7.79,1.342c-9.045,3.205-15.53,11.84-15.53,21.978
		c0,5.578,1.963,10.697,5.243,14.71c4.274,5.243,10.784,8.597,18.077,8.597c12.871,0,23.32-10.436,23.32-23.307
		C279.324,262.095,268.875,251.647,256.004,251.647z M256.004,289.465c-7.454,0-13.617-5.64-14.412-12.896
		c-0.062-0.522-0.087-1.056-0.087-1.603c0-3.33,1.131-6.398,3.019-8.846c2.646-3.441,6.808-5.653,11.48-5.653
		c8.001,0,14.499,6.498,14.499,14.499C270.503,282.968,264.005,289.465,256.004,289.465z"/>
</g>
<g>
	<path style="fill:#F98791;" d="M279.324,274.966c0,12.871-10.449,23.307-23.32,23.307c-7.293,0-13.803-3.354-18.077-8.597
		l3.665-13.107c0.795,7.256,6.957,12.896,14.412,12.896c8.001,0,14.499-6.498,14.499-14.499c0-8.001-6.498-14.499-14.499-14.499
		c-4.671,0-8.833,2.211-11.48,5.653l3.69-13.132c2.435-0.87,5.057-1.342,7.79-1.342
		C268.875,251.647,279.324,262.095,279.324,274.966z"/>
	<path style="fill:#F98791;" d="M271.136,251.647c0-2.733,2.224-4.97,4.97-4.97s4.97,2.236,4.97,4.97c0,2.746-2.224,4.97-4.97,4.97
		S271.136,254.392,271.136,251.647z"/>
	<path style="fill:#F98791;" d="M300.519,259.387v31.159c0,15.952-12.983,28.935-28.935,28.935h-31.159
		c-3.64,0-7.119-0.671-10.324-1.901l2.696-9.641c2.336,1.031,4.92,1.603,7.628,1.603h31.159c10.473,0,18.996-8.523,18.996-18.996
		v-31.159c0-10.473-8.523-18.996-18.996-18.996h-19.841l2.783-9.939h17.058C287.536,230.451,300.519,243.434,300.519,259.387z"/>
</g>
<g>
</g>
<g>
</g>
<g>
</g>
<g>
</g>
<g>
</g>
<g>
</g>
<g>
</g>
<g>
</g>
<g>
</g>
<g>
</g>
<g>
</g>
<g>
</g>
<g>
</g>
<g>
</g>
<g>
</g>
</svg>
