<?xml version="1.0" encoding="UTF-8" standalone="no"?>
<!-- Generator: Adobe Illustrator 19.0.0, SVG Export Plug-In . SVG Version: 6.00 Build 0)  -->

<svg
   xmlns:dc="http://purl.org/dc/elements/1.1/"
   xmlns:cc="http://creativecommons.org/ns#"
   xmlns:rdf="http://www.w3.org/1999/02/22-rdf-syntax-ns#"
   xmlns:svg="http://www.w3.org/2000/svg"
   xmlns="http://www.w3.org/2000/svg"
   xmlns:xlink="http://www.w3.org/1999/xlink"
   xmlns:sodipodi="http://sodipodi.sourceforge.net/DTD/sodipodi-0.dtd"
   xmlns:inkscape="http://www.inkscape.org/namespaces/inkscape"
   version="1.1"
   id="Layer_1"
   x="0px"
   y="0px"
   viewBox="0 0 512 512"
   style="enable-background:new 0 0 512 512;"
   xml:space="preserve"
   width="512px"
   height="512px"
   sodipodi:docname="victory-edited.svg"
   inkscape:version="0.92.2 5c3e80d, 2017-08-06"><metadata
     id="metadata49"><rdf:RDF><cc:Work
         rdf:about=""><dc:format>image/svg+xml</dc:format><dc:type
           rdf:resource="http://purl.org/dc/dcmitype/StillImage" /><dc:title></dc:title></cc:Work></rdf:RDF></metadata><defs
     id="defs47"><linearGradient
       inkscape:collect="always"
       id="linearGradient4549"><stop
         style="stop-color:#ff4eaf;stop-opacity:1"
         offset="0"
         id="stop4545" /><stop
         style="stop-color:#ff765c;stop-opacity:1"
         offset="1"
         id="stop4547" /></linearGradient><linearGradient
       inkscape:collect="always"
       xlink:href="#linearGradient4549"
       id="linearGradient4551"
       x1="117.14136"
       y1="62.915253"
       x2="349.091"
       y2="320.23901"
       gradientUnits="userSpaceOnUse" /><linearGradient
       inkscape:collect="always"
       xlink:href="#linearGradient4549"
       id="linearGradient4553"
       gradientUnits="userSpaceOnUse"
       x1="143.17526"
       y1="121.49152"
       x2="490.79318"
       y2="291.81122" /></defs><sodipodi:namedview
     pagecolor="#ffffff"
     bordercolor="#666666"
     borderopacity="1"
     objecttolerance="10"
     gridtolerance="10"
     guidetolerance="10"
     inkscape:pageopacity="0"
     inkscape:pageshadow="2"
     inkscape:window-width="1850"
     inkscape:window-height="1019"
     id="namedview45"
     showgrid="false"
     inkscape:zoom="0.4609375"
     inkscape:cx="-56.40678"
     inkscape:cy="256"
     inkscape:window-x="70"
     inkscape:window-y="25"
     inkscape:window-maximized="1"
     inkscape:current-layer="Layer_1" /><g
     id="g6"><g
       id="g4"><path
         d="M349.091,320.239h-3.15c-5.859,0-10.608,4.749-10.608,10.608s4.749,10.608,10.608,10.608h3.15    c5.859,0,10.608-4.749,10.608-10.608S354.949,320.239,349.091,320.239z"
         fill="#FFFFFF"
         id="path2" /></g></g><g
     id="g12"
     style="fill:url(#linearGradient4551);fill-opacity:1"><g
       id="g10"
       style="fill:url(#linearGradient4551);fill-opacity:1"><path
         d="M404.151,252.724V46.244c0-25.5-20.745-46.244-46.243-46.244c-12.352,0-23.964,4.811-32.699,13.545    c-8.735,8.735-13.544,20.347-13.544,32.699v195.595L203.346,61.079c-13.107-21.864-41.566-28.994-63.44-15.889    c-13.867,8.306-22.48,23.518-22.48,39.701c0,8.342,2.274,16.547,6.578,23.73l53.219,88.813c-8.611-0.303-17.39,1.768-25.285,6.497    c-13.857,8.309-22.466,23.52-22.466,39.698c0,3.611,0.452,7.191,1.284,10.679c-9.735-0.92-19.474,1.264-28.015,6.384    c-13.867,8.306-22.481,23.518-22.481,39.702c0,8.351,2.274,16.56,6.578,23.743l17.405,29.043    c1.259,42.223,18.432,81.727,48.568,111.517C183.67,495.201,224.562,512,267.956,512c43.758,0,84.887-17.039,115.809-47.973    c30.937-30.924,47.975-72.054,47.975-115.812v-53.534C431.74,276.314,420.54,259.851,404.151,252.724z M332.88,46.244    c0-6.684,2.603-12.969,7.33-17.696c4.728-4.728,11.013-7.331,17.697-7.331c13.8,0,25.027,11.227,25.027,25.027v202.723H332.88    V46.244z M142.204,97.717c-2.331-3.889-3.561-8.324-3.561-12.826c0-8.9,4.549-16.937,12.167-21.5    c11.84-7.095,27.246-3.238,34.339,8.596l106.054,176.981h-4.474c-17.081,0-32.017,9.316-40.025,23.127l-31.32-52.272    c-0.032-0.054-0.031-0.052-0.065-0.106c-0.072-0.12-0.15-0.24-0.227-0.36L142.204,97.717z M162.845,222.131    c4.003-2.397,8.427-3.539,12.802-3.539c8.445,0,16.708,4.254,21.405,11.93c0.063,0.103,0.127,0.205,0.194,0.306l36.471,60.869    c0.031,0.051,0.062,0.101,0.092,0.152c6.964,11.825,3.087,27.132-8.686,34.186c-11.843,7.096-27.247,3.233-34.338-8.605    l-36.533-60.973c-2.33-3.888-3.56-8.322-3.56-12.825C150.69,234.732,155.236,226.693,162.845,222.131z M123.884,344.677    l-0.003-0.004l-18.84-31.438c-2.33-3.888-3.561-8.327-3.561-12.838c-0.002-8.901,4.547-16.939,12.168-21.503    c5.73-3.435,12.457-4.432,18.941-2.808c6.484,1.625,11.948,5.68,15.385,11.417l36.545,60.973    c3.436,5.73,4.433,12.458,2.808,18.941c-1.625,6.484-5.68,11.948-11.417,15.385c-11.833,7.094-27.233,3.235-34.325-8.598    l-17.471-29.146C124.041,344.927,123.96,344.804,123.884,344.677z M410.523,348.218c0.001,38.088-14.828,73.888-41.76,100.808    c-26.917,26.928-62.718,41.758-100.807,41.758c-60.995,0-113.531-38.974-133.733-93.315c8.25,6.565,18.484,10.098,28.897,10.098    c8.083,0,16.269-2.118,23.692-6.567c10.597-6.349,18.088-16.443,21.091-28.425c1.839-7.339,1.852-14.846,0.134-21.996    c1.426,0.133,2.857,0.223,4.293,0.223c8.084,0,16.27-2.117,23.695-6.565c7.337-4.396,13.004-10.528,16.815-17.559    c0.388,0.418,0.783,0.831,1.188,1.236c8.735,8.734,20.347,13.544,32.699,13.544h22.535c5.859,0,10.608-4.749,10.608-10.608    s-4.749-10.608-10.608-10.608h-22.535c-6.685,0-12.969-2.603-17.696-7.331c-3.772-3.771-6.2-8.532-7.025-13.78    c-0.203-1.284-0.307-2.602-0.307-3.918c0-13.8,11.227-25.027,25.028-25.027h23.183c0.008,0,0.016,0.001,0.024,0.001    c0.007,0,0.016-0.001,0.023-0.001h76.066c1.781,0,3.543,0.188,5.25,0.562c11.154,2.429,19.249,12.495,19.249,23.937V348.218z"
         fill="#FFFFFF"
         id="path8"
         style="fill:url(#linearGradient4553);fill-opacity:1" /></g></g><g
     id="g14" /><g
     id="g16" /><g
     id="g18" /><g
     id="g20" /><g
     id="g22" /><g
     id="g24" /><g
     id="g26" /><g
     id="g28" /><g
     id="g30" /><g
     id="g32" /><g
     id="g34" /><g
     id="g36" /><g
     id="g38" /><g
     id="g40" /><g
     id="g42" /></svg>